<?xml version="1.0" encoding="UTF-8"?>
<svg width="1000px" height="243px" viewBox="0 0 1000 243" version="1.1" xmlns="http://www.w3.org/2000/svg" xmlns:xlink="http://www.w3.org/1999/xlink">
    <!-- Generator: Sketch 62 (91390) - https://sketch.com -->
    <title>logo</title>
    <desc>Created with Sketch.</desc>
    <g id="logo" stroke="none" stroke-width="1" fill="none" fill-rule="evenodd">
        <g id="Group-2" transform="translate(35.000000, 26.000000)" fill-rule="nonzero">
            <g id="sketch">
                <polygon id="Path" fill="#FFD54F" points="39.3255814 70.0600462 39.3255814 12.0953086 104.72093 0 170.116279 12.0953086 170.116279 70.0600462"></polygon>
                <polygon id="Path" fill="#FFECB3" points="39.3255814 70.0600462 104.72093 0 170.116279 70.0600462"></polygon>
                <polygon id="Path" fill="#FFA000" points="0 69.6166282 104.5 192 209 69.6166282"></polygon>
                <polygon id="Path" fill="#FFCA28" points="39.3255814 69.6166282 104.72093 192 170.116279 69.6166282"></polygon>
                <g id="Group" transform="translate(0.000000, 11.972286)" fill="#FFC107">
                    <polygon id="Path" points="0 57.6967691 39.1875 0.00961452576 39.1875 57.6967691"></polygon>
                    <polygon id="Path" points="169.8125 0.00961452576 169.8125 57.6967691 209 57.6967691"></polygon>
                </g>
            </g>
            <g id="source-code" transform="translate(117.000000, 104.000000)">
                <path d="M82.5,88 L5.5,88 C2.46130363,88 0,85.5386964 0,82.5 L0,5.5 C0,2.46130363 2.46130362,0 5.5,0 L82.5,0 C85.5386964,0 88,2.46130362 88,5.5 L88,82.5 C88,85.5386964 85.5386964,88 82.5,88 Z" id="Path" fill="#77959E"></path>
                <g id="Group" transform="translate(11.055276, 10.613065)" fill="#FFFFFF">
                    <path d="M8.87862452,52.7822768 L0.00134393828,40.920357 L8.87862452,29.0584372 C9.78920103,27.8394469 11.5156002,27.5936285 12.7319421,28.5068609 C13.9482842,29.4200934 14.1935686,31.1495779 13.2823201,32.3685682 L6.88274835,40.920357 L13.2823201,49.4721458 C14.1935686,50.6911361 13.9482842,52.4179267 12.7319421,53.333853 C11.5156002,54.2470855 9.78920103,53.9985732 8.87862452,52.7822768 Z" id="Path"></path>
                    <path d="M52.98547,53.3311591 C51.769128,52.4179267 51.5238436,50.6884422 52.435092,49.4694521 L58.8346638,40.9176631 L52.435092,32.3658741 C51.5238436,31.146884 51.769128,29.4200934 52.98547,28.504167 C54.2018119,27.5909346 55.9282111,27.836753 56.8387876,29.0557433 L65.7160682,40.9176631 L56.8387876,52.7795829 C55.9282111,53.9985732 54.2018119,54.2470855 52.98547,53.3311591 L52.98547,53.3311591 Z" id="Path"></path>
                    <path d="M19.4480316,57.1463965 C18.2780585,56.1752452 18.1161036,54.4370056 19.085145,53.2624648 L42.3938864,25.0532798 C43.362256,23.8807594 45.0967194,23.7150844 46.2693805,24.6889297 C47.4393536,25.660081 47.6013085,27.3976471 46.6322671,28.5728614 L23.3235257,56.7820464 C22.3551561,57.9545668 20.6206928,58.1175479 19.4480316,57.1463965 Z" id="Path"></path>
                    <polygon id="Path" points="60.3843237 0 65.8894472 0 65.8894472 5.51710936 60.3843237 5.51710936"></polygon>
                    <polygon id="Path" points="49.3740766 0 54.8792002 0 54.8792002 5.51710936 49.3740766 5.51710936"></polygon>
                </g>
                <polygon id="Path" fill="#62808C" points="0 11.0552764 54.8341709 11.0552764 54.8341709 16.8040201 0 16.8040201"></polygon>
            </g>
            <path d="M280.320898,154 C291.563389,154 300.614923,151.42212 307.475498,146.266361 C314.336073,141.110602 317.766361,134.302356 317.766361,125.841623 C317.766361,122.492583 317.345874,119.47404 316.5049,116.785995 C315.663927,114.097949 314.49099,111.806501 312.986089,109.911649 C311.481189,108.016798 309.688587,106.364311 307.608283,104.954188 C305.52798,103.544066 302.982928,102.266143 299.973127,101.120419 C296.963326,99.9746946 292.382232,98.6967714 286.229845,97.2866492 C280.077458,95.8765271 275.673411,94.6647033 273.017705,93.651178 C270.361998,92.6376527 268.303825,91.3156632 266.843187,89.6852094 C265.382548,88.0547557 264.652229,86.0497382 264.652229,83.6701571 C264.652229,79.6160558 266.245653,76.443281 269.432501,74.1518325 C272.619349,71.8603839 276.957003,70.7146597 282.445463,70.7146597 C285.36674,70.7146597 288.243756,71.2434555 291.07651,72.3010471 C293.909263,73.3586387 296.233007,75.2755236 298.047739,78.0517016 C299.862472,80.8278796 300.814101,83.934555 300.902624,87.3717277 L300.902624,87.3717277 L316.704078,87.3717277 C316.527031,80.6736475 314.911476,75.0111257 311.857414,70.3841623 C308.803351,65.757199 304.79766,62.2539267 299.840341,59.8743455 C294.883022,57.4947644 289.08473,56.3049738 282.445463,56.3049738 C276.160291,56.3049738 270.317736,57.5388307 264.9178,60.0065445 C259.517863,62.4742583 255.46791,65.9334642 252.767942,70.3841623 C250.067973,74.8348604 248.717989,79.3957243 248.717989,84.0667539 C248.717989,88.4733857 249.448309,92.263089 250.908947,95.4358639 C252.369586,98.6086387 254.339235,101.186518 256.817894,103.169503 C259.296554,105.152487 262.217831,106.760908 265.581726,107.994764 C268.945621,109.228621 274.522605,110.68281 282.312678,112.35733 C290.102751,114.03185 295.237117,115.992801 297.715776,118.240183 C300.194436,120.487565 301.433765,123.24171 301.433765,126.502618 C301.433765,129.675393 300.437875,132.275305 298.446095,134.302356 C296.454316,136.329407 293.82074,137.717496 290.545368,138.466623 C287.269997,139.21575 284.127411,139.590314 281.11761,139.590314 C274.920961,139.590314 270.096427,138.070026 266.644009,135.02945 C263.19159,131.988874 261.288334,127.91274 260.93424,122.801047 L260.93424,122.801047 L245,122.801047 C245.177047,127.824607 246.23933,132.341405 248.186848,136.35144 C250.134366,140.361475 252.72368,143.710515 255.95479,146.39856 C259.185899,149.086606 262.94815,151.025524 267.241543,152.215314 C271.534935,153.405105 275.89472,154 280.320898,154 Z M349.502055,152.149215 L349.502055,135.756545 L361.58552,122.801047 L381.901676,152.149215 L400.757193,152.149215 L372.075561,112.489529 L398.765413,83.5379581 L378.847613,83.5379581 L349.502055,116.984293 L349.502055,53 L333.700601,53 L333.700601,152.149215 L349.502055,152.149215 Z M437.007588,153.735602 C444.886184,153.735602 451.724629,151.576353 457.522921,147.257853 C463.321214,142.939354 467.282643,137.342932 469.407208,130.468586 L469.407208,130.468586 L453.472969,130.468586 C452.233639,133.465096 450.153335,135.844677 447.232058,137.60733 C444.310781,139.369983 441.035409,140.251309 437.405944,140.251309 C432.006007,140.251309 427.60196,138.620855 424.193803,135.359948 C420.785647,132.09904 418.771736,127.780541 418.152071,122.40445 L418.152071,122.40445 L470.602276,122.40445 L470.735062,117.513089 C470.735062,112.577661 469.93835,107.928665 468.344926,103.566099 C466.751502,99.203534 464.449889,95.4138307 461.440089,92.1969895 C458.430288,88.9801483 454.822953,86.4683682 450.618084,84.6616492 C446.413215,82.8549302 441.832121,81.9515707 436.874802,81.9515707 C431.917483,81.9515707 427.314259,82.8769634 423.065128,84.7277487 C418.815997,86.578534 415.164401,89.1343805 412.110338,92.395288 C409.056276,95.6561955 406.710402,99.4899651 405.072716,103.896597 C403.43503,108.303229 402.616187,112.930192 402.616187,117.777487 C402.616187,122.801047 403.43503,127.516143 405.072716,131.922775 C406.710402,136.329407 409.034145,140.163176 412.043946,143.424084 C415.053746,146.684991 418.705343,149.218805 422.998735,151.025524 C427.292128,152.832243 431.961745,153.735602 437.007588,153.735602 Z M455.066393,110.770942 L418.417641,110.770942 C418.771736,108.567627 419.612709,106.210079 420.940563,103.698298 C422.268416,101.186518 424.34872,99.0713351 427.181473,97.3527487 C430.014227,95.6341623 433.245337,94.7748691 436.874802,94.7748691 C439.264938,94.7748691 441.78786,95.2595986 444.443566,96.2290576 C447.099273,97.1985166 449.400885,98.9832024 451.348403,101.583115 C453.295922,104.183028 454.535251,107.245637 455.066393,110.770942 L455.066393,110.770942 Z M507.914954,152.545812 C511.367373,152.545812 514.111603,152.281414 516.147645,151.752618 L516.147645,151.752618 L516.147645,138.136126 C514.642744,138.576789 513.005058,138.79712 511.234587,138.79712 C506.100221,138.79712 503.533038,136.109075 503.533038,130.732984 L503.533038,130.732984 L503.533038,96.0968586 L516.413215,96.0968586 L516.413215,83.5379581 L503.533038,83.5379581 L503.533038,65.6910995 L487.731584,65.6910995 L487.731584,83.5379581 L477.241543,83.5379581 L477.241543,96.0968586 L487.731584,96.0968586 L487.731584,132.319372 C487.731584,145.803665 494.459374,152.545812 507.914954,152.545812 Z M557.443882,153.735602 C562.224154,153.735602 566.583939,152.964442 570.523237,151.42212 C574.462536,149.879799 577.8043,147.830716 580.54853,145.274869 C583.29276,142.719023 585.461587,139.876745 587.055011,136.748037 C588.648435,133.619328 589.666456,130.468586 590.109074,127.295812 L590.109074,127.295812 L573.909263,127.295812 C572.935504,130.997382 570.965855,134.015925 568.000316,136.35144 C565.034777,138.686955 561.471704,139.854712 557.311097,139.854712 C551.734113,139.854712 547.263674,137.805628 543.899779,133.707461 C540.535884,129.609293 538.853936,124.343368 538.853936,117.909686 C538.853936,111.387871 540.535884,106.07788 543.899779,101.979712 C547.263674,97.8815445 551.734113,95.8324607 557.311097,95.8324607 C561.471704,95.8324607 565.034777,97.0002182 568.000316,99.335733 C570.965855,101.671248 572.935504,104.689791 573.909263,108.391361 L573.909263,108.391361 L590.109074,108.391361 C589.489409,104.33726 588.139425,100.613656 586.059121,97.2205497 C583.978818,93.8274433 581.433765,90.9631326 578.423965,88.6276178 C575.414164,86.292103 572.0724,84.5955497 568.398672,83.5379581 C564.724945,82.4803665 561.073348,81.9515707 557.443882,81.9515707 C552.575087,81.9515707 547.993993,82.8769634 543.700601,84.7277487 C539.407208,86.578534 535.733481,89.1564136 532.679418,92.4613874 C529.625356,95.7663613 527.257351,99.622164 525.575403,104.028796 C523.893456,108.435428 523.052482,113.062391 523.052482,117.909686 C523.052482,122.756981 523.893456,127.361911 525.575403,131.724476 C527.257351,136.087042 529.625356,139.920812 532.679418,143.225785 C535.733481,146.530759 539.407208,149.108639 543.700601,150.959424 C547.993993,152.810209 552.575087,153.735602 557.443882,153.735602 Z M619.321846,152.149215 L619.321846,112.489529 C619.321846,108.611693 620.16282,105.284686 621.844768,102.508508 C623.526715,99.7323298 625.65128,97.8595113 628.218463,96.8900524 C630.785647,95.9205934 633.220044,95.4358639 635.521657,95.4358639 C640.036358,95.4358639 643.444515,96.845986 645.746127,99.6662304 C648.047739,102.486475 649.198546,106.276178 649.198546,111.03534 L649.198546,111.03534 L649.198546,152.149215 L665,152.149215 L665,109.052356 C665,104.028796 664.225419,99.7763962 662.676257,96.2951571 C661.127095,92.813918 659.135315,89.9936736 656.700917,87.8344241 C654.266519,85.6751745 651.522289,84.1548866 648.468226,83.2735602 C645.414164,82.3922339 642.382232,81.9515707 639.372431,81.9515707 C634.680683,81.9515707 630.608599,82.8108639 627.156181,84.5294503 C623.703762,86.2480366 621.092317,88.3852531 619.321846,90.9410995 L619.321846,90.9410995 L619.321846,53 L603.520392,53 L603.520392,152.149215 L619.321846,152.149215 Z" id="Sketch" fill="#222222"></path>
            <path d="M727.116019,155 C735.067057,155 742.178819,153.231845 748.451304,149.695535 C754.723789,146.159224 759.538584,141.341001 762.895689,135.240866 L762.895689,135.240866 L762.895689,153.143437 L771.774348,153.143437 L771.774348,102.883627 L730.959021,102.883627 L730.959021,111.901218 L762.630655,111.901218 C762.453965,117.028868 761.437999,121.736581 759.582757,126.024357 C757.727515,130.312134 755.430548,133.782138 752.691857,136.434371 C749.953167,139.086604 747.081958,141.119982 744.078233,142.534506 C741.074508,143.94903 738.137041,144.921516 735.265833,145.451962 C732.394625,145.982409 729.810538,146.247632 727.513571,146.247632 C722.212879,146.247632 717.287653,145.275147 712.737892,143.330176 C708.188132,141.385205 704.300958,138.622463 701.07637,135.041949 C697.851783,131.461434 695.378127,127.173658 693.655402,122.17862 C691.932677,117.183581 691.071315,111.81281 691.071315,106.066306 C691.071315,100.319802 691.932677,94.9711322 693.655402,90.0202977 C695.378127,85.0694632 697.851783,80.8037889 701.07637,77.2232747 C704.300958,73.6427605 708.166046,70.90212 712.671634,69.0013532 C717.177222,67.1005864 722.124534,66.150203 727.513571,66.150203 C735.817988,66.150203 742.996009,68.2719892 749.047632,72.5155616 C755.099255,76.759134 759.185205,82.6824538 761.305482,90.285521 L761.305482,90.285521 L771.509313,90.285521 C770.36083,85.2462788 768.483502,80.6490753 765.877328,76.4939107 C763.271155,72.3387461 760.046567,68.8245377 756.203566,65.9512855 C752.360564,63.0780334 747.987493,60.8678394 743.084353,59.3207037 C738.181213,57.7735679 732.990953,57 727.513571,57 C720.622672,57 714.283928,58.2377086 708.497339,60.7131258 C702.71075,63.1885431 697.785524,66.6364456 693.72166,71.0568336 C689.657797,75.4772215 686.521554,80.7153811 684.312932,86.7713126 C682.104311,92.827244 681,99.2589084 681,106.066306 C681,112.873703 682.082225,119.305368 684.246674,125.361299 C686.411123,131.41723 689.525279,136.65539 693.589143,141.075778 C697.653007,145.496166 702.556147,148.921967 708.298563,151.35318 C714.040979,153.784393 720.313465,155 727.116019,155 Z M822.793507,154.734777 C830.47951,154.734777 837.083289,152.635092 842.604843,148.435724 C848.126397,144.236355 851.90314,138.777176 853.935072,132.058187 L853.935072,132.058187 L844.128792,132.058187 C843.068654,135.064051 841.301756,137.738385 838.8281,140.081191 C836.354444,142.423996 833.682012,144.037438 830.810804,144.921516 C827.939596,145.805593 825.311336,146.247632 822.926024,146.247632 C818.685471,146.247632 814.864556,145.31935 811.463278,143.462788 C808.062001,141.606225 805.212879,138.865584 802.915913,135.240866 C800.618946,131.616148 799.293773,127.239964 798.940394,122.112314 L798.940394,122.112314 L854.99521,122.112314 L855.127728,118.5318 C855.127728,113.846189 854.376796,109.381597 852.874933,105.138024 C851.373071,100.894452 849.208622,97.2034281 846.381586,94.0649526 C843.55455,90.9264772 840.109101,88.4731619 836.045237,86.7050068 C831.981373,84.9368516 827.519957,84.052774 822.66099,84.052774 C817.802022,84.052774 813.296434,85.0031574 809.144226,86.9039242 C804.992017,88.804691 801.458222,91.390618 798.542842,94.661705 C795.627461,97.9327921 793.396754,101.712224 791.850718,106 C790.304683,110.287776 789.531666,114.730266 789.531666,119.32747 C789.531666,124.013081 790.282597,128.521876 791.78446,132.853857 C793.286323,137.185837 795.450772,140.98737 798.277807,144.258457 C801.104843,147.529544 804.616551,150.093369 808.812932,151.949932 C813.009313,153.806495 817.669505,154.734777 822.793507,154.734777 Z M845.718999,114.420839 L799.205428,114.420839 C800.000532,108.05548 802.518361,102.817321 806.758914,98.7063599 C810.999468,94.5953992 816.30016,92.5399188 822.66099,92.5399188 C829.19851,92.5399188 834.521288,94.5511953 838.629324,98.5737483 C842.73736,102.596301 845.100585,107.878665 845.718999,114.420839 L845.718999,114.420839 Z M882.558808,153.143437 L882.558808,112.962111 C882.558808,108.895354 883.331825,105.359044 884.877861,102.35318 C886.423896,99.3473162 888.720862,96.9161028 891.76876,95.0595399 C894.816658,93.202977 898.505056,92.2746955 902.833954,92.2746955 C908.75306,92.2746955 913.19239,93.9986468 916.151943,97.4465494 C919.111495,100.894452 920.591272,105.712675 920.591272,111.901218 L920.591272,111.901218 L920.591272,153.143437 L930,153.143437 L930,110.044655 C930,106.331529 929.447845,102.883627 928.343534,99.7009472 C927.239223,96.5182679 925.604843,93.7555255 923.440394,91.4127199 C921.275945,89.0699143 918.581426,87.2575553 915.356839,85.9756428 C912.132251,84.6937303 908.488026,84.052774 904.424162,84.052774 C900.625333,84.052774 897.290314,84.6274244 894.419106,85.7767253 C891.547898,86.9260262 889.052155,88.4068561 886.931879,90.2192152 C884.811602,92.0315742 883.221394,93.9544429 882.161256,95.9878214 L882.161256,95.9878214 L882.161256,85.6441137 L873.15008,85.6441137 L873.15008,153.143437 L882.558808,153.143437 Z" id="Gen" fill="#363634"></path>
        </g>
    </g>
</svg>